{"title":"31 (2016) 1080P WEB-DL DD5 1 H 264 NO CINAVIA","uid":15865134,"size":4010145190,"categoryP":"video","categoryS":"hd___movies","magnet":"?xt=urn:btih:38dba26952037d9077b59f19fffbd2024bb994b0&amp;dn=31+%282016%29+1080P+WEB-DL+DD5+1+H+264+NO+CINAVIA&amp;tr=udp%3A%2F%2Ftracker.leechers-paradise.org%3A6969&amp;tr=udp%3A%2F%2Fzer0day.ch%3A1337&amp;tr=udp%3A%2F%2Fopen.demonii.com%3A1337&amp;tr=udp%3A%2F%2Ftracker.coppersurfer.tk%3A6969&amp;tr=udp%3A%2F%2Fexodus.desync.com%3A6969","seeders":0,"leechers":1,"uploader":"jmanwf","files":1,"time":1474359932,"description":"Five carnival workers are kidnapped and held hostage in an abandoned, Hell-like compound where they are forced to participate in a violent game, the goal of which is to survive twelve hours against a gang of sadistic clowns.\r\n\r\n\r\nVideo\r\nID : 2\r\nFormat : AVC\r\nFormat/Info : Advanced Video Codec\r\nFormat profile :   \r\nFormat settings, CABAC : Yes\r\nFormat settings, ReFrames : 5 frames\r\nCodec ID : V_MPEG4/ISO/AVC\r\nDuration : 1 h 42 min\r\nBit rate : 4 571 kb/s\r\nWidth : 1 920 pixels\r\nHeight : 800 pixels\r\nDisplay aspect ratio : 2.40:1\r\nFrame rate mode : Constant\r\nFrame rate : 23.976 (23976/1000) FPS\r\nColor space : YUV\r\nChroma subsampling : 4:2:0\r\nBit depth : 8 bits\r\nScan type : Progressive\r\nBits/(Pixel*Frame) : 0.124\r\nStream size : 3.28 GiB (88%)\r\nLanguage : English\r\nDefault : Yes\r\nForced : No\r\nColor range : Limited\r\nColor primaries : BT.709\r\nTransfer characteristics : BT.709\r\nMatrix coefficients : BT.709\r\n\r\nAudio #1\r\nID : 1\r\nFormat : AAC\r\nFormat/Info : Advanced Audio Codec\r\nFormat profile : LC\r\nCodec ID : A_AAC\r\nDuration : 1 h 42 min\r\nBit rate : 126 kb/s\r\nChannel(s) : 2 channels\r\nChannel positions : Front: L R\r\nSampling rate : 48.0 kHz\r\nFrame rate : 46.875 FPS (1024 spf)\r\nCompression mode : Lossy\r\nStream size : 92.5 MiB (2%)\r\nLanguage : English\r\nDefault : Yes\r\nForced : No\r\n\r\nAudio #2\r\nID : 3\r\nFormat : AC-3\r\nFormat/Info : Audio Coding 3\r\nMode extension : CM (complete main)\r\nFormat settings, Endianness : Big\r\nCodec ID : A_AC3\r\nDuration : 1 h 42 min\r\nBit rate mode : Constant\r\nBit rate : 384 kb/s\r\nChannel(s) : 6 channels\r\nChannel positions : Front: L C R, Side: L R, LFE\r\nSampling rate : 48.0 kHz\r\nFrame rate : 31.250 FPS (1536 spf)\r\nCompression mode : Lossy\r\nStream size : 282 MiB (7%)\r\nLanguage : English\r\nDefault : No\r\nForced : No\r\n\r\nAudio #3\r\nID : 4\r\nFormat : AAC\r\nFormat/Info : Advanced Audio Codec\r\nFormat profile : LC\r\nCodec ID : A_AAC\r\nDuration : 1 h 42 min\r\nBit rate : 126 kb/s\r\nChannel(s) : 2 channels\r\nChannel positions : Front: L R\r\nSampling rate : 48.0 kHz\r\nFrame rate : 46.875 FPS (1024 spf)\r\nCompression mode : Lossy\r\nStream size : 92.5 MiB (2%)\r\nLanguage : French\r\nDefault : No\r\nForced : No\r\n\r\nText\r\nID : 5\r\nFormat : UTF-8\r\nCodec ID : S_TEXT/UTF8\r\nCodec ID/Info : UTF-8 Plain Text\r\nDuration : 1 h 37 min\r\nBit rate : 61 b/s\r\nCount of elements : 1171\r\nStream size : 44.4 KiB (0%)\r\nLanguage : English\r\nDefault : Yes\r\nForced : No\r\n\r\n\r\n \nhttp://s15.postimg.org/52bg0maln/image.jpg\r\n\r\n\r\n\r\n \nhttp://s15.postimg.org/5gcs07up7/image.jpg\r\n\r\n\r\n\r\n \nhttp://www.imdb.com/title/tt3835080/","torrent":{"xt":"urn:btih:38dba26952037d9077b59f19fffbd2024bb994b0","amp;dn":"31+%282016%29+1080P+WEB-DL+DD5+1+H+264+NO+CINAVIA","amp;tr":["udp%3A%2F%2Ftracker.leechers-paradise.org%3A6969","udp%3A%2F%2Fzer0day.ch%3A1337","udp%3A%2F%2Fopen.demonii.com%3A1337","udp%3A%2F%2Ftracker.coppersurfer.tk%3A6969","udp%3A%2F%2Fexodus.desync.com%3A6969"],"infoHash":"38dba26952037d9077b59f19fffbd2024bb994b0","infoHashBuffer":{"type":"Buffer","data":[56,219,162,105,82,3,125,144,119,181,159,25,255,251,210,2,75,185,148,176]},"announce":[],"urlList":[]}}